<?xml version="1.0" encoding="UTF-8"?>
<!DOCTYPE svg PUBLIC "-//W3C//DTD SVG 1.1//EN" "http://www.w3.org/Graphics/SVG/1.1/DTD/svg11.dtd">
<!-- Creator: CorelDRAW X7 -->
<svg xmlns="http://www.w3.org/2000/svg" xml:space="preserve" width="22.8877mm" height="22.8877mm" version="1.1" style="shape-rendering:geometricPrecision; text-rendering:geometricPrecision; image-rendering:optimizeQuality; fill-rule:evenodd; clip-rule:evenodd"
viewBox="0 0 2418 2418"
 xmlns:xlink="http://www.w3.org/1999/xlink">
 <defs>
  <style type="text/css">
   <![CDATA[
    .fil0 {fill:#C9A766}
   ]]>
  </style>
 </defs>
 <g id="Layer_x0020_1">
  <metadata id="CorelCorpID_0Corel-Layer"/>
  <path class="fil0" d="M1209 2251l137 -137 83 83 -220 221 -431 -431 83 -84 348 348zm0 -420l-82 0 0 -118 82 0 0 0 352 0c26,26 53,53 79,79l-83 84 -45 -45 -303 0zm-239 0l-64 0 -202 202 -319 0 0 -319 46 -46 84 83 -12 12 0 152 152 0c67,-67 135,-135 202,-202l113 0 0 118zm-428 -274l45 -45 0 -303 0 -82 118 0 0 82 0 0 0 352c-26,26 -53,53 -79,79l-84 -83zm348 -348l4 0 219 -220 84 84 -136 136 -4 0 -219 219 -113 0 0 -118 64 0 101 -101zm183 12l136 136 0 4 219 219 0 113 -118 0 0 -64 -101 -101 0 -4 -220 -219 84 -84zm124 319l-89 89 0 493 -118 -118 0 -424 123 -123 84 83zm-200 693l-812 0 0 -740 183 -183 199 0 0 118 -150 0 -114 114 0 573 575 0 119 118zm-830 -1024l137 137 -83 84 -221 -221 431 -431 84 83 -348 348zm248 248l335 335 -83 84 -335 -335 83 -84zm172 -487l0 -64 -202 -202 0 -319 319 0 46 46 -83 84 -12 -12 -152 0 0 152c67,67 135,135 202,202l0 113 -118 0zm274 -428l45 45 303 0 82 0 0 118 -82 0 0 0 -352 0c-26,-26 -53,-53 -79,-79l83 -84zm348 348l0 4 220 219 -84 84 -136 -136 0 -4 -219 -219 0 -113 118 0 0 64 101 101zm-331 307l-89 -89 -493 0 118 -118 424 0 123 123 -83 84zm-693 -200l0 -812 740 0 183 183 0 199 -118 0 0 -150 -114 -114 -573 0 0 576 -118 118zm1024 -830l-137 137 -84 -83 221 -221 431 431 -83 84 -348 -348zm-248 248l-335 335 -84 -83 335 -335 84 83zm487 172l64 0 202 -202 319 0 0 319 -46 46 -84 -83 12 -12 0 -152 -152 0c-67,67 -135,135 -202,202l-113 0 0 -118zm428 274l-45 45 0 303 0 82 -118 0 0 -82 0 0 0 -352c26,-26 53,-53 79,-79l84 83zm-348 348l-4 0 -220 220 -83 -84 136 -136 4 0 219 -219 113 0 0 118 -64 0 -101 101zm-307 -331l89 -89 0 -493 118 118 0 424 -124 124 -83 -84zm200 -693l812 0 0 740 -183 183 -199 0 0 -118 150 0 114 -114 0 -573 -576 0 -118 -118zm830 1024l-137 -137 83 -83 221 220 -431 431 -84 -83 348 -348zm-248 -248l-335 -335 83 -84 335 335 -83 84zm-172 487l0 64 202 202 0 319 -319 0 -46 -46 83 -84 12 12 152 0 0 -152c-67,-67 -135,-135 -202,-202l0 -113 118 0zm-291 -227l89 89 493 0 -118 118 -424 0 -124 -123 84 -84zm693 200l0 812 -740 0 -183 -183 0 -199 118 0 0 150 114 114 573 0 0 -576 118 -118zm-776 582l335 -335 84 83 -335 335 -84 -83z"/>
 </g>
</svg>
