<?xml version="1.0" encoding="UTF-8"?>
<!DOCTYPE svg PUBLIC "-//W3C//DTD SVG 1.1//EN" "http://www.w3.org/Graphics/SVG/1.1/DTD/svg11.dtd">
<!-- Creator: CorelDRAW X7 -->
<svg xmlns="http://www.w3.org/2000/svg" xml:space="preserve" width="1.22083in" height="0.45089in" version="1.1" style="shape-rendering:geometricPrecision; text-rendering:geometricPrecision; image-rendering:optimizeQuality; fill-rule:evenodd; clip-rule:evenodd"
viewBox="0 0 1290 476"
 xmlns:xlink="http://www.w3.org/1999/xlink">
 <defs>
  <style type="text/css">
   <![CDATA[
    .str0 {stroke:#6B6B6B;stroke-width:14.673}
    .str2 {stroke:#373435;stroke-width:7.33649}
    .str1 {stroke:#DBDBDB;stroke-width:7.33649}
    .fil1 {fill:none}
    .fil2 {fill:#D92027}
    .fil0 {fill:#FCFAED}
    .fil4 {fill:#212020;fill-rule:nonzero}
    .fil6 {fill:#4D4747;fill-rule:nonzero}
    .fil5 {fill:#DB3338;fill-rule:nonzero}
    .fil3 {fill:#FEFEFE;fill-rule:nonzero}
   ]]>
  </style>
 </defs>
 <g id="Layer_x0020_1">
  <metadata id="CorelCorpID_0Corel-Layer"/>
  <g id="_1016088160">
   <rect class="fil0 str0" x="7" y="303" width="1275" height="166"/>
   <line class="fil1 str1" x1="6" y1="274" x2="1284" y2= "274" />
   <line class="fil1 str1" x1="6" y1="236" x2="1284" y2= "236" />
   <line class="fil1 str1" x1="6" y1="202" x2="1284" y2= "202" />
   <line class="fil1 str1" x1="6" y1="164" x2="1284" y2= "164" />
   <line class="fil1 str1" x1="6" y1="128" x2="1284" y2= "128" />
   <line class="fil1 str1" x1="6" y1="98" x2="1284" y2= "98" />
   <line class="fil1 str1" x1="6" y1="60" x2="1284" y2= "60" />
   <line class="fil1 str1" x1="6" y1="23" x2="1284" y2= "23" />
   <rect class="fil2" x="742" y="13" width="536" height="114"/>
   <path class="fil3" d="M837 108l0 -55 8 0 0 8c2,-3 4,-5 6,-6 3,-2 6,-3 10,-3 3,0 7,1 9,3 2,1 4,4 5,7 4,-7 10,-10 16,-10 5,0 9,2 12,5 3,3 4,7 4,14l0 37 -9 0 0 -34c0,-4 0,-7 -1,-8 0,-2 -1,-3 -3,-4 -1,-1 -3,-2 -5,-2 -4,0 -7,2 -9,4 -2,3 -4,7 -4,12l0 32 -8 0 0 -35c0,-5 -1,-8 -2,-10 -2,-2 -4,-3 -7,-3 -3,0 -5,1 -7,2 -2,2 -4,4 -5,6 -1,3 -1,7 -1,12l0 28 -9 0z"/>
   <path id="1" class="fil3" d="M955 90l9 2c-1,5 -4,10 -8,13 -4,3 -9,4 -15,4 -7,0 -13,-2 -17,-7 -5,-5 -7,-12 -7,-21 0,-9 2,-16 7,-21 4,-5 10,-8 17,-8 7,0 12,3 17,8 4,5 6,12 6,21 0,0 0,1 0,2l-38 0c0,6 2,11 5,14 3,3 6,5 10,5 4,0 6,-1 9,-3 2,-2 4,-5 5,-9zm-29 -14l29 0c0,-5 -1,-9 -3,-11 -3,-3 -7,-5 -11,-5 -4,0 -7,1 -10,4 -3,3 -4,7 -5,12z"/>
   <path id="2" class="fil3" d="M975 108l0 -55 8 0 0 8c1,-3 4,-5 6,-6 3,-2 6,-3 9,-3 4,0 7,1 10,3 2,1 4,4 5,7 4,-7 9,-10 16,-10 5,0 9,2 12,5 2,3 4,7 4,14l0 37 -9 0 0 -34c0,-4 0,-7 -1,-8 0,-2 -1,-3 -3,-4 -1,-1 -3,-2 -5,-2 -4,0 -7,2 -9,4 -2,3 -4,7 -4,12l0 32 -8 0 0 -35c0,-5 -1,-8 -3,-10 -1,-2 -3,-3 -7,-3 -2,0 -4,1 -6,2 -2,2 -4,4 -5,6 -1,3 -1,7 -1,12l0 28 -9 0z"/>
   <path id="3" class="fil3" d="M1066 108l-8 0 0 -75 8 0 0 27c4,-5 9,-8 14,-8 4,0 7,1 9,2 3,2 6,4 7,6 2,2 4,5 5,9 1,3 1,7 1,11 0,9 -2,16 -6,22 -5,5 -10,7 -16,7 -6,0 -11,-2 -14,-8l0 7zm0 -28c0,7 0,12 2,15 3,4 7,7 11,7 4,0 7,-2 10,-6 3,-3 4,-8 4,-15 0,-7 -1,-13 -4,-16 -2,-3 -6,-5 -9,-5 -4,0 -7,2 -10,5 -3,4 -4,9 -4,15z"/>
   <path id="4" class="fil3" d="M1148 90l9 2c-1,5 -4,10 -8,13 -4,3 -9,4 -15,4 -7,0 -13,-2 -17,-7 -5,-5 -7,-12 -7,-21 0,-9 2,-16 7,-21 4,-5 10,-8 17,-8 7,0 12,3 17,8 4,5 6,12 6,21 0,0 0,1 0,2l-38 0c0,6 2,11 5,14 3,3 6,5 10,5 4,0 6,-1 9,-3 2,-2 4,-5 5,-9zm-29 -14l29 0c0,-5 -1,-9 -3,-11 -3,-3 -7,-5 -11,-5 -4,0 -7,1 -10,4 -3,3 -4,7 -5,12z"/>
   <path id="5" class="fil3" d="M1168 108l0 -55 8 0 0 9c2,-4 4,-7 5,-8 2,-1 4,-2 6,-2 3,0 6,1 9,3l-3 9c-2,-2 -4,-2 -7,-2 -1,0 -3,0 -5,2 -1,1 -2,3 -3,5 -1,3 -1,7 -1,11l0 28 -9 0z"/>
   <path class="fil4" d="M465 176l0 -80 26 0 0 19c2,-7 6,-12 11,-16 4,-3 10,-5 16,-5 1,0 3,0 4,0 1,0 2,1 3,1l-3 25c-1,0 -3,-1 -5,-1 -1,0 -3,0 -4,0 -7,0 -12,2 -16,6 -3,4 -5,10 -5,18l0 33 -27 0z"/>
   <path id="1" class="fil4" d="M589 126c-1,-5 -2,-9 -5,-11 -3,-3 -7,-4 -11,-4 -4,0 -8,1 -11,3 -2,3 -4,7 -5,12l32 0zm27 15l-59 0c0,6 1,11 4,15 3,3 8,5 13,5 4,0 8,-1 11,-3 3,-1 5,-4 6,-7l21 9c-3,6 -7,10 -13,14 -7,3 -14,5 -23,5 -14,0 -25,-4 -33,-12 -8,-8 -12,-18 -12,-30 0,-13 4,-23 12,-31 8,-9 19,-13 31,-13 13,0 23,5 31,13 7,8 11,20 11,34l0 1z"/>
   <path id="2" class="fil4" d="M634 176l0 -60 -11 0 0 -20 11 0 0 -16c0,-10 3,-17 8,-21 5,-5 12,-7 22,-7 1,0 3,0 5,0 2,0 4,1 6,1l0 22c-1,-1 -2,-1 -3,-1 -1,-1 -2,-1 -3,-1 -3,0 -5,1 -6,3 -1,1 -2,4 -2,7l0 13 14 0 0 20 -14 0 0 60 -27 0z"/>
   <path class="fil1 str2" d="M98 170c101,-81 253,-160 383,-34 84,83 191,164 178,35"/>
   <path class="fil1 str2" d="M96 175c67,-140 191,-169 306,-52 123,125 202,164 256,53"/>
   <path class="fil5" d="M145 192c-3,-2 -6,-4 -8,-5 -3,-1 -5,-2 -8,-2 -5,0 -10,2 -13,6 -3,3 -5,8 -5,15 0,6 2,11 5,14 4,4 8,6 14,6 3,0 5,-1 8,-2 2,-1 4,-3 7,-5l0 24c-4,2 -7,3 -10,4 -4,1 -7,2 -11,2 -11,0 -21,-4 -29,-12 -7,-8 -11,-18 -11,-31 0,-13 4,-23 12,-31 7,-8 17,-12 29,-12 4,0 7,1 11,2 3,0 6,2 9,3l0 24z"/>
   <path id="1" class="fil5" d="M162 246l0 -80 26 0 0 19c2,-7 6,-12 10,-16 5,-3 11,-5 17,-5 1,0 2,0 4,0 1,0 2,1 3,1l-3 25c-1,0 -3,-1 -5,-1 -1,0 -3,0 -4,0 -7,0 -12,2 -16,6 -3,4 -5,10 -5,18l0 33 -27 0z"/>
   <path id="2" class="fil5" d="M287 206c0,-6 -1,-11 -4,-14 -3,-3 -7,-5 -12,-5 -5,0 -9,2 -12,5 -3,3 -4,8 -4,14 0,6 1,11 4,14 3,3 7,5 12,5 5,0 9,-2 12,-5 3,-3 4,-8 4,-14zm28 0c0,6 -2,11 -4,16 -2,6 -5,10 -9,14 -4,4 -9,7 -14,10 -6,2 -11,3 -17,3 -6,0 -12,-1 -17,-3 -5,-3 -10,-6 -14,-10 -4,-4 -7,-8 -9,-13 -2,-6 -3,-11 -3,-17 0,-6 1,-11 3,-16 2,-6 5,-10 9,-14 4,-4 9,-7 14,-9 5,-3 11,-4 17,-4 6,0 12,1 17,4 5,2 10,5 14,9 4,4 7,9 9,14 3,5 4,10 4,16z"/>
   <path id="3" class="fil5" d="M323 239l6 -21c4,3 8,6 13,8 5,2 10,3 15,3 3,0 6,-1 7,-2 2,-1 3,-3 3,-5 0,-3 -3,-6 -11,-8 -2,0 -4,-1 -5,-1 -9,-3 -15,-6 -18,-9 -4,-4 -6,-9 -6,-15 0,-8 3,-14 9,-19 5,-4 13,-7 23,-7 5,0 10,1 15,2 5,1 10,3 16,6l-6 19c-4,-2 -7,-4 -11,-6 -4,-1 -8,-2 -11,-2 -3,0 -6,1 -7,2 -2,1 -3,2 -3,4 0,3 4,5 11,7 2,1 3,1 4,1 9,3 16,6 20,10 3,4 5,9 5,15 0,9 -3,15 -9,20 -6,5 -14,8 -24,8 -7,0 -13,-1 -19,-3 -6,-1 -12,-4 -17,-7z"/>
   <path id="4" class="fil5" d="M400 239l5 -21c4,3 9,6 13,8 5,2 10,3 15,3 3,0 6,-1 8,-2 2,-1 3,-3 3,-5 0,-3 -4,-6 -11,-8 -3,0 -5,-1 -6,-1 -8,-3 -14,-6 -18,-9 -4,-4 -6,-9 -6,-15 0,-8 3,-14 9,-19 6,-4 13,-7 23,-7 5,0 10,1 15,2 6,1 11,3 16,6l-6 19c-3,-2 -7,-4 -11,-6 -3,-1 -7,-2 -11,-2 -3,0 -5,1 -7,2 -2,1 -2,2 -2,4 0,3 3,5 10,7 2,1 3,1 4,1 10,3 16,6 20,10 4,4 6,9 6,15 0,9 -3,15 -10,20 -6,5 -14,8 -24,8 -7,0 -13,-1 -19,-3 -6,-1 -11,-4 -16,-7z"/>
   <polygon class="fil6" points="156,413 156,451 150,451 150,413 139,413 139,406 167,406 167,413 "/>
   <polygon id="1" class="fil6" points="172,451 172,406 179,406 179,423 199,423 199,406 206,406 206,451 199,451 199,430 179,430 179,451 "/>
   <polygon id="2" class="fil6" points="216,451 216,406 239,406 239,413 222,413 222,424 239,424 239,430 222,430 222,445 239,445 239,451 "/>
   <path id="3" class="fil6" d="M297 417c-2,-1 -4,-3 -6,-4 -2,-1 -5,-1 -7,-1 -5,0 -8,2 -11,5 -3,3 -4,7 -4,12 0,5 1,9 4,12 3,3 6,5 10,5 3,0 5,-1 7,-2 2,0 5,-2 7,-4l0 8c-2,2 -4,3 -6,4 -2,0 -5,1 -7,1 -3,0 -6,-1 -9,-2 -3,-1 -5,-3 -7,-5 -2,-2 -4,-5 -5,-8 -1,-3 -1,-6 -1,-9 0,-3 0,-6 1,-9 1,-3 3,-6 5,-8 2,-2 4,-4 7,-5 3,-1 6,-2 9,-2 2,0 4,1 7,1 2,1 4,2 6,4l0 7z"/>
   <polygon id="4" class="fil6" points="305,451 305,406 312,406 312,451 "/>
   <polygon id="5" class="fil6" points="335,413 335,451 328,451 328,413 317,413 317,406 346,406 346,413 "/>
   <path id="6" class="fil6" d="M355 434l12 0 -5 -11c0,0 0,-1 0,-2 -1,-1 -1,-2 -1,-3 0,1 -1,2 -1,3 0,1 0,2 -1,2l-4 11zm19 17l-5 -11 -16 0 -5 11 -7 0 20 -46 20 46 -7 0z"/>
   <polygon id="7" class="fil6" points="395,413 395,451 388,451 388,413 377,413 377,406 406,406 406,413 "/>
   <polygon id="8" class="fil6" points="411,451 411,406 418,406 418,451 "/>
   <path id="9" class="fil6" d="M462 429c0,-2 0,-4 -1,-6 0,-3 -2,-4 -3,-6 -1,-2 -3,-3 -5,-4 -2,0 -4,-1 -6,-1 -2,0 -4,1 -5,1 -2,1 -4,2 -5,4 -2,2 -3,3 -4,5 0,3 -1,5 -1,7 0,2 1,4 1,6 1,3 2,4 4,6 1,2 3,3 5,4 1,0 3,1 5,1 2,0 4,-1 6,-1 2,-1 4,-2 5,-4 1,-2 3,-3 3,-6 1,-2 1,-4 1,-6zm7 0c0,3 0,6 -1,9 -1,3 -3,6 -5,8 -2,2 -5,4 -7,5 -3,1 -6,2 -9,2 -3,0 -5,-1 -8,-2 -3,-1 -5,-3 -7,-5 -2,-2 -4,-5 -5,-8 -1,-3 -2,-6 -2,-9 0,-3 1,-6 2,-9 1,-3 3,-6 5,-8 2,-2 4,-4 7,-5 3,-1 5,-2 8,-2 3,0 6,1 9,2 2,1 5,3 7,5 2,3 4,5 5,8 1,3 1,6 1,9z"/>
   <path id="10" class="fil6" d="M477 451l0 -46 26 27c1,1 2,2 2,3 1,1 2,2 3,3l0 -32 6 0 0 47 -27 -28c-1,-1 -1,-1 -2,-2 -1,-1 -1,-2 -2,-3l0 31 -6 0z"/>
   <polygon id="11" class="fil6" points="541,451 541,406 547,406 547,445 562,445 562,451 "/>
   <polygon id="12" class="fil6" points="568,451 568,406 575,406 575,451 "/>
   <path id="13" class="fil6" d="M584 451l0 -46 26 27c1,1 2,2 3,3 0,1 1,2 2,3l0 -32 6 0 0 47 -27 -28c0,-1 -1,-1 -2,-2 0,-1 -1,-2 -2,-3l0 31 -6 0z"/>
   <polygon id="14" class="fil6" points="630,451 630,406 637,406 637,425 652,406 660,406 644,426 662,451 653,451 637,428 637,451 "/>
   <polygon id="15" class="fil6" points="666,451 666,406 673,406 673,451 "/>
   <path id="16" class="fil6" d="M683 451l0 -46 26 27c0,1 1,2 2,3 1,1 1,2 2,3l0 -32 6 0 0 47 -26 -28c-1,-1 -2,-1 -2,-2 -1,-1 -2,-2 -2,-3l0 31 -6 0z"/>
   <path id="17" class="fil6" d="M752 428l16 0c0,1 0,1 0,2 0,1 0,2 0,3 0,6 -2,11 -5,14 -3,4 -8,6 -14,6 -3,0 -6,-1 -9,-2 -3,-1 -5,-3 -7,-5 -2,-2 -3,-5 -4,-8 -1,-2 -2,-6 -2,-9 0,-3 1,-7 2,-9 1,-3 2,-6 4,-8 2,-2 5,-4 7,-5 3,-1 6,-2 9,-2 3,0 6,1 9,2 2,2 5,4 7,6l-5 4c-2,-1 -3,-3 -5,-4 -2,-1 -4,-1 -6,-1 -4,0 -8,2 -11,5 -3,3 -4,7 -4,12 0,5 1,9 4,12 3,4 7,5 11,5 4,0 7,-1 9,-3 2,-2 4,-4 4,-8l0 0 -10 0 0 -7z"/>
   <path id="18" class="fil6" d="M799 425l3 0c3,0 5,0 6,-1 2,-1 2,-3 2,-5 0,-2 0,-4 -2,-5 -1,-1 -3,-2 -6,-2l-3 0 0 13zm0 20l2 0c3,0 4,0 6,0 1,0 2,-1 2,-1 1,-1 2,-1 2,-2 1,-1 1,-3 1,-4 0,-1 0,-2 -1,-4 0,-1 -1,-1 -2,-2 -1,0 -2,-1 -2,-1 -1,0 -2,0 -4,0l-2 0 -2 0 0 14zm-7 6l0 -45 11 0c3,0 5,1 6,1 2,0 3,1 4,2 1,1 2,2 3,4 1,1 1,3 1,5 0,3 0,5 -1,6 -1,2 -3,3 -5,4 3,0 4,1 6,3 1,2 2,5 2,8 0,1 0,3 -1,5 -1,2 -1,3 -3,4 -1,1 -2,2 -4,3 -1,0 -4,0 -8,0l-11 0z"/>
   <path id="19" class="fil6" d="M834 434l12 0 -4 -11c-1,0 -1,-1 -1,-2 0,-1 -1,-2 -1,-3 0,1 0,2 -1,3 0,1 0,2 0,2l-5 11zm19 17l-5 -11 -16 0 -5 11 -7 0 20 -46 20 46 -7 0z"/>
   <path id="20" class="fil6" d="M896 417c-2,-1 -4,-3 -6,-4 -2,-1 -5,-1 -7,-1 -4,0 -8,2 -11,5 -3,3 -4,7 -4,12 0,5 1,9 4,12 3,3 6,5 10,5 3,0 5,-1 7,-2 3,0 5,-2 7,-4l0 8c-2,2 -4,3 -6,4 -2,0 -5,1 -7,1 -3,0 -6,-1 -9,-2 -2,-1 -5,-3 -7,-5 -2,-2 -3,-5 -4,-8 -1,-3 -2,-6 -2,-9 0,-3 1,-6 2,-9 1,-3 2,-6 4,-8 2,-2 5,-4 7,-5 3,-1 6,-2 9,-2 2,0 5,1 7,1 2,1 4,2 6,4l0 7z"/>
   <polygon id="21" class="fil6" points="904,451 904,406 911,406 911,425 926,406 934,406 917,426 936,451 927,451 911,428 911,451 "/>
   <path id="22" class="fil6" d="M946 425l3 0c3,0 5,0 7,-1 1,-1 2,-3 2,-5 0,-2 -1,-4 -2,-5 -1,-1 -4,-2 -7,-2l-3 0 0 13zm0 20l3 0c2,0 4,0 5,0 1,0 2,-1 3,-1 1,-1 1,-1 2,-2 0,-1 0,-3 0,-4 0,-1 0,-2 -1,-4 0,-1 -1,-1 -2,-2 -1,0 -1,-1 -2,-1 -1,0 -2,0 -3,0l-2 0 -3 0 0 14zm-6 6l0 -45 10 0c3,0 5,1 7,1 1,0 2,1 3,2 2,1 3,2 3,4 1,1 1,3 1,5 0,3 0,5 -1,6 -1,2 -3,3 -5,4 3,0 5,1 6,3 1,2 2,5 2,8 0,1 0,3 -1,5 0,2 -1,3 -2,4 -1,1 -3,2 -4,3 -2,0 -5,0 -9,0l-10 0z"/>
   <path id="23" class="fil6" d="M1008 429c0,-2 0,-4 -1,-6 -1,-3 -2,-4 -3,-6 -2,-2 -3,-3 -5,-4 -2,0 -4,-1 -6,-1 -2,0 -4,1 -6,1 -1,1 -3,2 -4,4 -2,2 -3,3 -4,5 0,3 -1,5 -1,7 0,2 1,4 1,6 1,3 2,4 4,6 1,2 3,3 4,4 2,0 4,1 6,1 2,0 4,-1 6,-1 2,-1 3,-2 5,-4 1,-2 2,-3 3,-6 1,-2 1,-4 1,-6zm7 0c0,3 0,6 -1,9 -2,3 -3,6 -5,8 -2,2 -5,4 -7,5 -3,1 -6,2 -9,2 -3,0 -6,-1 -8,-2 -3,-1 -5,-3 -7,-5 -2,-2 -4,-5 -5,-8 -1,-3 -2,-6 -2,-9 0,-3 1,-6 2,-9 1,-3 3,-6 5,-8 2,-2 4,-4 7,-5 2,-1 5,-2 8,-2 3,0 6,1 9,2 2,1 5,3 7,5 2,3 3,5 5,8 1,3 1,6 1,9z"/>
   <path id="24" class="fil6" d="M1023 451l0 -46 26 27c1,1 1,2 2,3 1,1 2,2 3,3l0 -32 6 0 0 47 -27 -28c-1,-1 -1,-1 -2,-2 -1,-1 -1,-2 -2,-3l0 31 -6 0z"/>
   <polygon id="25" class="fil6" points="1069,451 1069,406 1092,406 1092,413 1076,413 1076,424 1092,424 1092,430 1076,430 1076,445 1092,445 1092,451 "/>
   <path class="fil6" d="M174 343c-2,-2 -4,-4 -7,-4 -2,-1 -5,-2 -7,-2 -5,0 -9,2 -13,5 -3,3 -4,7 -4,12 0,5 1,9 4,12 3,4 7,5 12,5 3,0 5,0 8,-1 2,-1 5,-3 7,-5l0 9c-2,1 -4,2 -7,3 -2,1 -5,1 -7,1 -4,0 -7,-1 -10,-2 -3,-1 -6,-3 -8,-5 -2,-2 -4,-4 -5,-7 -2,-3 -2,-6 -2,-10 0,-3 0,-6 2,-9 1,-3 3,-6 5,-8 2,-2 5,-4 8,-5 3,-1 6,-1 9,-1 3,0 6,0 8,1 3,0 5,2 7,3l0 8z"/>
   <path id="1" class="fil6" d="M191 351l1 0c4,0 7,-1 8,-2 1,0 2,-2 2,-4 0,-3 -1,-5 -2,-6 -1,-1 -4,-1 -8,-1l-1 0 0 13zm-1 6l0 20 -7 0 0 -45 11 0c3,0 5,0 7,0 2,1 3,1 4,2 2,1 3,3 4,4 0,2 1,4 1,6 0,4 -1,6 -3,8 -2,3 -4,4 -8,4l16 21 -8 0 -16 -20 -1 0z"/>
   <path id="2" class="fil6" d="M259 354c0,-2 0,-4 -1,-6 -1,-2 -2,-4 -4,-6 -1,-1 -3,-3 -5,-3 -2,-1 -4,-2 -7,-2 -2,0 -4,1 -6,2 -2,0 -4,2 -6,3 -1,2 -3,4 -3,6 -1,2 -2,4 -2,6 0,3 1,5 2,7 0,2 2,4 3,5 2,2 4,3 6,4 2,1 4,1 6,1 3,0 5,0 7,-1 2,-1 4,-2 5,-4 2,-1 3,-3 4,-5 1,-2 1,-5 1,-7zm8 0c0,3 -1,6 -2,9 -1,3 -3,6 -5,8 -3,2 -5,4 -8,5 -3,1 -6,2 -10,2 -3,0 -6,-1 -9,-2 -3,-1 -6,-3 -8,-5 -3,-2 -4,-5 -6,-8 -1,-2 -1,-6 -1,-9 0,-3 0,-6 1,-9 2,-3 3,-5 6,-8 2,-2 5,-4 8,-5 3,-1 6,-1 9,-1 4,0 7,0 10,1 3,1 5,3 8,5 2,3 4,5 5,8 1,3 2,6 2,9z"/>
   <path id="3" class="fil6" d="M273 368l6 -3c1,2 2,4 3,5 2,1 4,1 6,1 2,0 4,0 5,-2 2,-1 2,-3 2,-5 0,-2 -2,-5 -7,-7 0,0 -1,0 -1,0 -5,-3 -9,-5 -10,-7 -2,-2 -3,-4 -3,-7 0,-4 2,-7 4,-9 3,-2 6,-3 10,-3 4,0 6,0 9,1 2,2 4,4 4,6l-5 3c-1,-1 -2,-2 -3,-3 -2,-1 -3,-1 -4,-1 -2,0 -4,0 -5,1 -1,1 -2,3 -2,5 0,2 3,5 8,7 0,0 1,0 1,1 4,2 8,4 9,6 2,2 3,4 3,7 0,4 -1,8 -4,10 -3,3 -7,4 -11,4 -4,0 -8,-1 -10,-3 -3,-2 -4,-4 -5,-7z"/>
   <path id="4" class="fil6" d="M308 368l6 -3c1,2 2,4 4,5 1,1 3,1 5,1 3,0 4,0 6,-2 1,-1 2,-3 2,-5 0,-2 -3,-5 -7,-7 -1,0 -1,0 -2,0 -5,-3 -8,-5 -10,-7 -1,-2 -2,-4 -2,-7 0,-4 1,-7 4,-9 2,-2 5,-3 10,-3 3,0 6,0 8,1 3,2 4,4 5,6l-6 3c-1,-1 -2,-2 -3,-3 -1,-1 -2,-1 -4,-1 -2,0 -3,0 -5,1 -1,1 -1,3 -1,5 0,2 2,5 7,7 1,0 1,0 1,1 5,2 8,4 10,6 2,2 2,4 2,7 0,4 -1,8 -4,10 -3,3 -6,4 -11,4 -4,0 -7,-1 -10,-3 -2,-2 -4,-4 -5,-7z"/>
   <path id="5" class="fil6" d="M354 351l1 0c4,0 7,-1 8,-2 2,0 2,-2 2,-4 0,-3 0,-5 -2,-6 -1,-1 -4,-1 -8,-1l-1 0 0 13zm0 6l0 20 -7 0 0 -45 10 0c3,0 6,0 7,0 2,1 3,1 5,2 1,1 2,3 3,4 1,2 1,4 1,6 0,4 -1,6 -3,8 -1,3 -4,4 -8,4l16 21 -8 0 -16 -20 0 0z"/>
   <polygon id="6" class="fil6" points="383,377 383,332 409,332 409,338 390,338 390,349 409,349 409,356 390,356 390,370 409,370 409,377 "/>
   <polygon id="7" class="fil6" points="417,377 417,332 443,332 443,338 425,338 425,349 443,349 443,355 425,355 425,377 "/>
   <path id="8" class="fil6" d="M439 373c0,-1 0,-2 1,-3 1,0 2,-1 3,-1 1,0 2,1 3,1 1,1 1,2 1,3 0,1 0,2 -1,3 -1,1 -2,1 -3,1 -1,0 -2,0 -3,-1 -1,-1 -1,-2 -1,-3z"/>
   <path id="9" class="fil6" d="M498 354c0,-2 -1,-4 -2,-6 -1,-2 -2,-4 -3,-6 -2,-1 -4,-3 -6,-3 -2,-1 -4,-2 -6,-2 -3,0 -5,1 -7,2 -2,0 -4,2 -5,3 -2,2 -3,4 -4,6 -1,2 -1,4 -1,6 0,3 0,5 1,7 1,2 2,4 4,5 1,2 3,3 5,4 2,1 4,1 7,1 2,0 4,0 6,-1 2,-1 4,-2 6,-4 1,-1 2,-3 3,-5 1,-2 2,-5 2,-7zm7 0c0,3 0,6 -1,9 -2,3 -4,6 -6,8 -2,2 -5,4 -8,5 -3,1 -6,2 -9,2 -4,0 -7,-1 -10,-2 -3,-1 -6,-3 -8,-5 -2,-2 -4,-5 -5,-8 -1,-2 -2,-6 -2,-9 0,-3 1,-6 2,-9 1,-3 3,-5 5,-8 2,-2 5,-4 8,-5 3,-1 6,-1 10,-1 3,0 6,0 9,1 3,1 6,3 8,5 2,3 4,5 6,8 1,3 1,6 1,9z"/>
   <path id="10" class="fil6" d="M521 351l2 0c4,0 6,-1 8,-2 1,0 2,-2 2,-4 0,-3 -1,-5 -2,-6 -2,-1 -4,-1 -8,-1l-2 0 0 13zm0 6l0 20 -7 0 0 -45 10 0c4,0 6,0 8,0 1,1 3,1 4,2 1,1 2,3 3,4 1,2 1,4 1,6 0,4 0,6 -2,8 -2,3 -5,4 -8,4l16 21 -9 0 -15 -20 -1 0z"/>
   <path id="11" class="fil6" d="M576 354l18 0c0,0 0,0 0,1 0,1 0,2 0,3 0,6 -2,11 -5,15 -4,3 -9,5 -16,5 -4,0 -7,-1 -10,-2 -3,-1 -6,-2 -8,-5 -2,-2 -4,-4 -5,-7 -1,-3 -2,-6 -2,-10 0,-3 1,-6 2,-9 1,-3 3,-6 5,-8 3,-2 5,-4 8,-5 3,-1 6,-1 10,-1 4,0 7,0 10,2 3,1 5,3 7,5l-5 4c-2,-1 -3,-3 -5,-3 -2,-1 -5,-2 -7,-2 -5,0 -9,2 -12,5 -3,3 -5,7 -5,12 0,5 2,9 5,13 3,3 7,4 12,4 4,0 8,-1 10,-3 3,-2 4,-4 4,-8l0 0 -11 0 0 -6z"/>
   <rect class="fil1 str0" x="7" y="7" width="1275" height="462"/>
  </g>
 </g>
</svg>
