<?xml version="1.0" encoding="UTF-8"?>
<!DOCTYPE svg PUBLIC "-//W3C//DTD SVG 1.1//EN" "http://www.w3.org/Graphics/SVG/1.1/DTD/svg11.dtd">
<!-- Creator: CorelDRAW X7 -->
<svg xmlns="http://www.w3.org/2000/svg" xml:space="preserve" width="1.23807in" height="0.440087in" version="1.1" style="shape-rendering:geometricPrecision; text-rendering:geometricPrecision; image-rendering:optimizeQuality; fill-rule:evenodd; clip-rule:evenodd"
viewBox="0 0 516 184"
 xmlns:xlink="http://www.w3.org/1999/xlink">
 <defs>
  <style type="text/css">
   <![CDATA[
    .str0 {stroke:#373435;stroke-width:2.89686}
    .fil8 {fill:none}
    .fil2 {fill:#0AAAFA}
    .fil3 {fill:#1B1C7A}
    .fil5 {fill:#305443}
    .fil1 {fill:#96989A}
    .fil0 {fill:#ADDED6}
    .fil4 {fill:#FFF212}
    .fil7 {fill:#305443;fill-rule:nonzero}
    .fil6 {fill:#454545;fill-rule:nonzero}
   ]]>
  </style>
 </defs>
 <g id="Layer_x0020_1">
  <metadata id="CorelCorpID_0Corel-Layer"/>
  <g id="_854258496">
   <polygon class="fil0" points="63,34 129,46 74,86 0,63 "/>
   <g>
    <path class="fil1" d="M0 63l74 22c0,0 1,4 1,6 0,0 1,0 1,0l-76 -21c0,0 0,0 0,-1l0 -4c0,0 0,-2 0,-2z"/>
    <polygon class="fil1" points="130,46 72,86 75,90 129,52 "/>
   </g>
  </g>
  <g id="_854254784">
   <circle class="fil2" cx="63" cy="40" r="39"/>
   <path class="fil3" d="M55 65c3,-1 5,-1 8,1 2,2 2,4 -2,5 0,0 -2,0 -4,-3 -1,-1 -2,-3 -2,-3zm30 -57c-2,2 4,12 6,11 1,-5 0,-10 -6,-11zm-32 47c-3,1 -3,2 -2,3 1,1 3,0 4,-1 0,-2 1,-6 -2,-2zm2 -9c4,8 7,-1 2,-1 -1,0 -2,0 -2,1zm-23 0c3,5 6,-2 7,-2 8,0 0,9 6,9 0,0 4,5 2,-2 -2,0 -2,-4 0,-3 3,3 1,-5 3,-5 9,-1 3,2 5,-7 0,-4 7,-2 7,1 4,0 -2,-2 5,-5 0,0 4,-6 2,-7 -7,-3 6,-8 7,-3 0,4 8,-3 8,-5 0,-5 -1,-5 -7,-6 -6,-2 -28,-6 -32,-2 -11,14 -10,12 -12,30 -1,2 -2,6 -1,7zm11 10c3,5 10,6 3,2 0,-1 -3,-3 -3,-2zm7 5c0,0 1,0 2,0 0,1 1,0 1,1 1,0 2,0 2,-1 0,0 -1,0 -3,0 0,0 -1,0 -1,0 -1,0 -1,0 -1,0z"/>
   <g>
    <path class="fil4" d="M68 48l-11 18c8,7 19,12 32,13l-5 -5c12,-6 19,-16 21,-29 1,-13 -6,-36 -27,-42 17,10 17,33 10,43 -4,6 -9,9 -15,12l-5 -10z"/>
    <path class="fil4" d="M58 31l12 -17c-8,-8 -19,-13 -32,-14l5 5c-12,6 -20,16 -21,29 -1,13 5,36 26,42 -16,-9 -17,-32 -9,-43 4,-5 9,-9 14,-12l5 10z"/>
   </g>
  </g>
  <path class="fil5" d="M168 80l0 -69 20 0 0 69 -20 0zm49 -20l19 0c1,4 -4,7 19,7 14,0 26,2 26,-8 0,-2 1,-6 -14,-5 -3,0 -10,0 -20,0 -29,0 -30,-7 -30,-18 -1,-26 14,-24 37,-24 35,0 44,1 45,21l-20 0c0,-9 -1,-8 -25,-7 0,0 -18,-2 -18,7 0,3 -1,7 23,6 28,0 43,-2 43,21 0,26 -22,21 -47,21 -15,0 -28,3 -35,-3 -3,-4 -4,-11 -3,-18zm156 -49l23 0 -1 48c0,13 -3,24 -46,22 -25,-1 -25,-12 -25,-29l20 0c0,6 -1,14 8,15 9,1 22,1 22,-12l-1 -44zm50 1l43 0c42,0 48,-1 47,35 0,35 -4,34 -45,34l-45 0 0 -69zm20 17l0 37c43,-1 52,3 52,-20 -1,-22 -7,-17 -52,-17z"/>
  <polygon class="fil6" points="5,133 2,133 2,115 5,115 "/>
  <path id="1" class="fil6" d="M24 133l-2 0 -8 -12c0,0 -1,0 -1,0 0,-1 0,-1 0,-1 0,-1 0,-1 -1,-1 0,0 0,-1 0,-1l0 15 -2 0 0 -18 2 0 8 11c0,0 1,0 1,1 0,0 0,0 0,1 0,0 1,0 1,0 0,1 0,1 0,1l0 -14 2 0 0 18z"/>
  <path id="2" class="fil6" d="M41 123c0,-1 0,-2 -1,-3 0,0 0,-1 -1,-2 -1,0 -1,0 -2,-1 -1,0 -2,0 -3,0l-2 0 0 14 1 0c2,0 3,-1 4,-1 0,0 1,-1 2,-1 0,-1 1,-2 1,-3 1,-1 1,-2 1,-3zm2 0c0,2 0,3 0,4 -1,1 -1,2 -2,3 -1,1 -2,2 -3,2 -2,1 -3,1 -4,1l-5 0 0 -18 5 0c1,0 3,0 4,0 1,0 2,1 3,2 1,1 1,1 2,3 0,1 0,2 0,3z"/>
  <path id="3" class="fil6" d="M60 124c0,-1 0,-2 -1,-3 0,-1 0,-2 -1,-2 0,-1 -1,-2 -1,-2 -1,0 -2,0 -2,0 -1,0 -2,0 -3,0 0,0 -1,1 -1,2 -1,0 -1,1 -1,2 -1,1 -1,2 -1,3 0,1 0,2 0,3 1,1 1,1 2,2 0,0 1,1 1,1 1,1 2,1 2,1 1,0 2,0 3,-1 0,0 1,0 1,-1 1,-1 1,-1 1,-2 1,-1 1,-2 1,-3zm2 -1c0,2 0,3 0,5 0,1 -1,2 -2,3 0,0 -1,1 -2,1 -1,1 -2,1 -4,1 -1,0 -2,0 -3,0 -1,-1 -2,-2 -2,-2 -1,-1 -2,-2 -2,-3 0,-1 -1,-3 -1,-4 0,-2 1,-3 1,-4 0,-1 1,-2 2,-3 0,-1 1,-2 2,-2 1,0 2,-1 4,-1 1,0 2,1 3,1 1,0 2,1 2,2 1,1 2,2 2,3 0,1 0,2 0,3z"/>
  <path id="4" class="fil6" d="M81 133l-2 0 -9 -12c0,0 0,0 0,0 0,-1 0,-1 -1,-1 0,-1 0,-1 0,-1 0,0 0,-1 0,-1l0 15 -3 0 0 -18 3 0 8 11c0,0 0,0 0,1 1,0 1,0 1,1 0,0 0,0 0,0 1,1 1,1 1,1l0 -14 2 0 0 18z"/>
  <polygon id="5" class="fil6" points="94,133 86,133 86,115 94,115 94,117 88,117 88,122 94,122 94,125 88,125 88,131 94,131 "/>
  <path id="6" class="fil6" d="M108 128c0,1 0,1 -1,2 0,1 0,1 -1,2 0,0 -1,0 -1,1 -1,0 -2,0 -3,0 0,0 -1,0 -1,0 -1,0 -1,0 -1,0 -1,0 -1,0 -2,-1 0,0 0,0 0,0l0 -3c0,0 0,0 1,1 0,0 0,0 1,0 0,0 1,1 1,1 0,0 1,0 1,0 1,0 1,0 1,0 1,-1 1,-1 1,-1 1,0 1,-1 1,-1 0,0 0,-1 0,-1 0,-1 0,-1 0,-1 0,-1 0,-1 -1,-1 0,0 0,-1 -1,-1 0,0 -1,0 -1,0 -1,-1 -2,-1 -2,-1 -1,-1 -1,-1 -2,-1 0,-1 0,-1 0,-2 -1,0 -1,-1 -1,-2 0,0 0,-1 1,-2 0,0 0,-1 1,-1 0,-1 1,-1 2,-1 0,-1 1,-1 2,-1 1,0 1,0 2,1 1,0 1,0 2,0l0 3c0,0 -1,-1 -1,-1 0,0 -1,0 -1,0 0,0 -1,0 -1,0 -1,0 -1,0 -1,0 -1,0 -1,0 -1,0 -1,0 -1,0 -1,0 -1,1 -1,1 -1,1 0,1 0,1 0,1 0,1 0,1 0,1 0,1 0,1 1,1 0,0 0,1 1,1 0,0 1,0 1,0 1,1 2,1 2,1 1,1 1,1 2,1 0,1 0,1 0,2 1,0 1,1 1,2z"/>
  <polygon id="7" class="fil6" points="114,133 111,133 111,115 114,115 "/>
  <path id="8" class="fil6" d="M132 133l-3 0 -2 -5 -6 0 -2 5 -3 0 7 -18 2 0 7 18zm-8 -14c0,0 0,0 0,-1 0,0 0,0 0,0l0 0c0,0 0,0 0,0 0,1 0,1 0,1l-2 6 5 0 -3 -6z"/>
  <path id="9" class="fil6" d="M149 133l-2 0 -9 -12c0,0 0,0 0,0 0,-1 0,-1 0,-1 -1,-1 -1,-1 -1,-1 0,0 0,-1 0,-1l0 15 -3 0 0 -18 3 0 8 11c0,0 0,0 1,1 0,0 0,0 0,1 0,0 0,0 1,0 0,1 0,1 0,1l0 -14 2 0 0 18z"/>
  <path id="10" class="fil6" d="M169 128c0,1 0,1 0,2 -1,1 -1,1 -2,2 0,0 -1,0 -1,1 -1,0 -2,0 -3,0 0,0 -1,0 -1,0 0,0 -1,0 -1,0 -1,0 -1,0 -1,-1 -1,0 -1,0 -1,0l0 -3c0,0 0,0 1,1 0,0 0,0 1,0 0,0 1,1 1,1 1,0 1,0 1,0 1,0 1,0 2,0 0,-1 0,-1 1,-1 0,0 0,-1 0,-1 0,0 0,-1 0,-1 0,-1 0,-1 0,-1 0,-1 0,-1 -1,-1 0,0 0,-1 -1,-1 0,0 -1,0 -1,0 -1,-1 -1,-1 -2,-1 -1,-1 -1,-1 -1,-1 -1,-1 -1,-1 -1,-2 0,0 -1,-1 -1,-2 0,0 1,-1 1,-2 0,0 1,-1 1,-1 1,-1 1,-1 2,-1 1,-1 1,-1 2,-1 1,0 2,0 2,1 1,0 1,0 2,0l0 3c0,0 -1,-1 -1,-1 0,0 -1,0 -1,0 0,0 -1,0 -1,0 0,0 -1,0 -1,0 -1,0 -1,0 -1,0 -1,0 -1,0 -1,0 0,1 -1,1 -1,1 0,1 0,1 0,1 0,1 0,1 0,1 0,1 1,1 1,1 0,0 1,1 1,1 1,0 1,0 2,0 0,1 1,1 1,1 1,1 1,1 2,1 0,1 0,1 1,2 0,0 0,1 0,2z"/>
  <path id="11" class="fil6" d="M174 124c0,1 0,2 1,3 0,1 0,1 1,2 0,1 1,1 2,1 0,1 1,1 2,1 1,0 2,0 2,-1 1,0 2,0 3,-1l0 3c-1,0 -2,1 -3,1 0,0 -1,0 -2,0 -1,0 -3,0 -4,-1 -1,0 -1,-1 -2,-1 -1,-1 -1,-2 -2,-3 0,-1 0,-3 0,-4 0,-1 0,-3 0,-4 1,-1 1,-2 2,-3 1,-1 2,-2 3,-2 1,0 2,-1 3,-1 0,0 1,0 1,0 1,0 1,0 2,1 0,0 0,0 1,0 0,0 0,0 1,0l0 3c-1,0 -1,-1 -1,-1 -1,0 -1,0 -1,0 -1,0 -1,0 -2,0 0,0 -1,0 -1,0 -1,0 -2,0 -2,0 -1,0 -2,1 -2,2 -1,0 -1,1 -1,2 -1,1 -1,2 -1,3z"/>
  <polygon id="12" class="fil6" points="191,133 188,133 188,115 191,115 "/>
  <polygon id="13" class="fil6" points="204,133 196,133 196,115 204,115 204,117 198,117 198,122 204,122 204,125 198,125 198,131 204,131 "/>
  <path id="14" class="fil6" d="M223 133l-3 0 -8 -12c0,0 0,0 0,0 0,-1 0,-1 -1,-1 0,-1 0,-1 0,-1 0,0 0,-1 0,-1l0 15 -3 0 0 -18 3 0 8 11c0,0 0,0 0,1 0,0 1,0 1,1 0,0 0,0 0,0 0,1 1,1 1,1l0 -14 2 0 0 18z"/>
  <polygon id="15" class="fil6" points="237,117 233,117 233,133 231,133 231,117 226,117 226,115 237,115 "/>
  <polygon id="16" class="fil6" points="243,133 241,133 241,115 243,115 "/>
  <polygon id="17" class="fil6" points="257,117 251,117 251,122 257,122 257,125 251,125 251,133 248,133 248,115 257,115 "/>
  <polygon id="18" class="fil6" points="263,133 260,133 260,115 263,115 "/>
  <path id="19" class="fil6" d="M269 124c0,1 0,2 1,3 0,1 0,1 1,2 0,1 1,1 2,1 0,1 1,1 2,1 1,0 2,0 2,-1 1,0 2,0 3,-1l0 3c-1,0 -2,1 -3,1 0,0 -1,0 -2,0 -1,0 -3,0 -4,-1 -1,0 -1,-1 -2,-1 -1,-1 -1,-2 -2,-3 0,-1 0,-3 0,-4 0,-1 0,-3 0,-4 1,-1 1,-2 2,-3 1,-1 2,-2 3,-2 1,0 2,-1 3,-1 0,0 1,0 1,0 1,0 1,0 2,1 0,0 0,0 1,0 0,0 0,0 1,0l0 3c-1,0 -1,-1 -1,-1 -1,0 -1,0 -1,0 -1,0 -1,0 -2,0 0,0 -1,0 -1,0 -1,0 -2,0 -2,0 -1,0 -2,1 -2,2 -1,0 -1,1 -1,2 -1,1 -1,2 -1,3z"/>
  <path id="20" class="fil6" d="M293 115l0 13c0,1 0,2 0,2 0,1 0,1 -1,2 0,0 0,1 -1,1 0,0 -1,0 -2,0 0,0 0,0 -1,0 0,0 0,0 -1,0l0 -3c1,1 1,1 1,1 1,0 1,0 1,0 0,0 1,0 1,0 0,0 0,-1 0,-1 1,0 1,0 1,-1 0,0 0,-1 0,-1l0 -13 2 0z"/>
  <path id="21" class="fil6" d="M310 124c0,-1 0,-2 0,-3 0,-1 0,-2 -1,-2 0,-1 -1,-2 -2,-2 0,0 -1,0 -2,0 -1,0 -1,0 -2,0 -1,0 -1,1 -2,2 0,0 -1,1 -1,2 0,1 0,2 0,3 0,1 0,2 0,3 0,1 1,1 1,2 1,0 1,1 2,1 0,1 1,1 2,1 1,0 2,0 2,-1 1,0 2,0 2,-1 0,-1 1,-1 1,-2 0,-1 0,-2 0,-3zm3 -1c0,2 0,3 0,5 -1,1 -1,2 -2,3 -1,0 -2,1 -3,1 -1,1 -2,1 -3,1 -1,0 -2,0 -3,0 -1,-1 -2,-2 -3,-2 0,-1 -1,-2 -1,-3 -1,-1 -1,-3 -1,-4 0,-2 0,-3 1,-4 0,-1 1,-2 1,-3 1,-1 2,-2 3,-2 1,0 2,-1 3,-1 1,0 3,1 4,1 0,0 1,1 2,2 1,1 1,2 2,3 0,1 0,2 0,3z"/>
  <path id="22" class="fil6" d="M324 131c0,0 1,0 2,0 0,-1 1,-1 1,-1 0,-1 1,-1 1,-2 0,-1 0,-1 0,-2l0 -11 3 0 0 10c0,2 0,3 -1,4 0,1 -1,2 -1,2 -1,1 -2,1 -2,2 -1,0 -2,0 -3,0 -1,0 -2,0 -3,0 -1,-1 -2,-1 -2,-2 -1,0 -1,-1 -2,-2 0,-1 0,-2 0,-3l0 -11 2 0 0 11c0,0 0,1 1,2 0,1 0,1 1,2 0,0 0,0 1,1 1,0 1,0 2,0z"/>
  <path id="23" class="fil6" d="M343 119c0,0 -1,-1 -1,-1 -1,-1 -2,-1 -3,-1l-1 0 0 6 1 0c1,0 2,-1 3,-1 0,-1 1,-2 1,-3zm4 14l-3 0 -5 -8 -1 0 0 8 -3 0 0 -18 4 0c1,0 2,0 3,0 0,0 1,0 2,1 0,0 1,0 1,1 0,1 0,1 0,2 0,1 0,2 0,2 0,1 0,1 -1,2 0,0 -1,0 -1,1 0,0 -1,0 -1,0l5 9z"/>
  <path id="24" class="fil6" d="M364 133l-2 0 -9 -12c0,0 0,0 0,0 0,-1 0,-1 0,-1 0,-1 -1,-1 -1,-1 0,0 0,-1 0,-1l0 15 -3 0 0 -18 3 0 8 11c0,0 0,0 1,1 0,0 0,0 0,1 0,0 0,0 1,0 0,1 0,1 0,1l0 -14 2 0 0 18z"/>
  <path id="25" class="fil6" d="M382 133l-2 0 -2 -5 -7 0 -2 5 -2 0 6 -18 3 0 6 18zm-7 -14c0,0 0,0 0,-1 0,0 0,0 0,0l-1 0c0,0 0,0 0,0 0,1 0,1 0,1l-2 6 5 0 -2 -6z"/>
  <polygon id="26" class="fil6" points="393,133 385,133 385,115 387,115 387,131 393,131 "/>
  <path id="27" class="fil6" d="M414 123c0,-1 -1,-2 -1,-3 0,0 -1,-1 -1,-2 -1,0 -2,0 -3,-1 0,0 -1,0 -3,0l-2 0 0 14 2 0c1,0 2,-1 3,-1 1,0 2,-1 3,-1 0,-1 1,-2 1,-3 0,-1 1,-2 1,-3zm2 0c0,2 0,3 -1,4 0,1 -1,2 -2,3 0,1 -1,2 -3,2 -1,1 -2,1 -4,1l-4 0 0 -18 4 0c2,0 3,0 5,0 1,0 2,1 3,2 0,1 1,1 2,3 0,1 0,2 0,3z"/>
  <path id="28" class="fil6" d="M434 133l-3 0 -2 -5 -7 0 -1 5 -3 0 6 -18 3 0 7 18zm-8 -14c0,0 0,0 0,-1 0,0 0,0 0,0l0 0c-1,0 -1,0 -1,0 0,1 0,1 0,1l-2 6 5 0 -2 -6z"/>
  <polygon id="29" class="fil6" points="446,117 441,117 441,133 439,133 439,117 435,117 435,115 446,115 "/>
  <path id="30" class="fil6" d="M463 133l-3 0 -2 -5 -7 0 -1 5 -3 0 6 -18 3 0 7 18zm-8 -14c0,0 0,0 0,-1 0,0 0,0 0,0l0 0c0,0 0,0 -1,0 0,1 0,1 0,1l-2 6 5 0 -2 -6z"/>
  <path id="31" class="fil6" d="M472 119c0,0 0,0 0,-1 0,0 0,0 0,-1 -1,0 -1,0 -1,0 -1,0 -1,0 -2,0 0,0 0,0 -1,0 0,0 0,0 0,0l0 5 1 0c1,0 2,0 2,0 1,-1 1,-2 1,-3zm1 8c0,0 0,-1 -1,-2 0,0 -1,0 -3,0l-1 0 0 6c0,0 0,0 1,0 0,0 0,0 1,0 1,0 2,-1 2,-1 1,-1 1,-1 1,-3zm3 0c0,1 0,2 -1,3 0,0 0,1 -1,1 0,1 -1,1 -2,2 -1,0 -2,0 -3,0 0,0 0,0 -1,0 0,0 -1,0 -1,0 0,0 -1,0 -1,0 0,0 -1,0 -1,0l0 -18c1,0 1,0 2,-1 1,0 1,0 2,0 1,0 2,1 3,1 0,0 1,0 1,1 1,0 1,1 1,1 1,1 1,1 1,2 0,1 0,1 0,1 0,1 -1,1 -1,2 0,0 0,0 -1,1 0,0 0,0 -1,0 1,0 1,0 2,1 0,0 0,0 1,1 0,0 0,0 0,1 1,0 1,1 1,1z"/>
  <path id="32" class="fil6" d="M493 133l-3 0 -2 -5 -7 0 -1 5 -3 0 6 -18 3 0 7 18zm-8 -14c0,0 0,0 0,-1 0,0 0,0 0,0l0 0c0,0 -1,0 -1,0 0,1 0,1 0,1l-2 6 5 0 -2 -6z"/>
  <path id="33" class="fil6" d="M504 128c0,1 0,1 0,2 0,1 -1,1 -1,2 -1,0 -1,0 -2,1 0,0 -1,0 -2,0 -1,0 -1,0 -2,0 0,0 0,0 -1,0 0,0 -1,0 -1,-1 0,0 -1,0 -1,0l0 -3c0,0 1,0 1,1 1,0 1,0 1,0 1,0 1,1 2,1 0,0 0,0 1,0 0,0 1,0 1,0 0,-1 1,-1 1,-1 0,0 1,-1 1,-1 0,0 0,-1 0,-1 0,-1 0,-1 0,-1 -1,-1 -1,-1 -1,-1 0,0 -1,-1 -1,-1 -1,0 -1,0 -2,0 0,-1 -1,-1 -1,-1 -1,-1 -1,-1 -2,-1 0,-1 -1,-1 -1,-2 0,0 0,-1 0,-2 0,0 0,-1 0,-2 1,0 1,-1 2,-1 0,-1 1,-1 1,-1 1,-1 2,-1 2,-1 1,0 2,0 3,1 0,0 1,0 1,0l0 3c0,0 0,-1 0,-1 -1,0 -1,0 -1,0 -1,0 -1,0 -2,0 0,0 0,0 -1,0 0,0 0,0 -1,0 0,0 0,0 -1,0 0,1 0,1 0,1 0,1 0,1 0,1 0,1 0,1 0,1 0,1 0,1 0,1 1,0 1,1 2,1 0,0 0,0 1,0 1,1 1,1 2,1 0,1 1,1 1,1 1,1 1,1 1,2 0,0 0,1 0,2z"/>
  <polygon id="34" class="fil6" points="516,133 508,133 508,115 516,115 516,117 510,117 510,122 516,122 516,125 510,125 510,131 516,131 "/>
  <path class="fil7" d="M2 171l0 0 1 0c1,0 1,0 2,-1 0,0 0,-1 0,-2l0 -13c0,-1 0,-2 0,-2 -1,-1 -1,-1 -2,-1l-1 0 0 0 10 0c4,0 7,0 9,1 2,0 3,2 4,3 2,2 2,3 2,5 0,3 -1,6 -3,7 -2,2 -6,3 -11,3l-11 0zm7 -1c2,0 3,0 4,0 3,0 5,0 7,-2 2,-2 3,-4 3,-6 0,-3 -1,-5 -3,-7 -2,-1 -4,-2 -7,-2 -1,0 -3,0 -4,0l0 17z"/>
  <path id="1" class="fil7" d="M40 170c-2,1 -3,1 -4,1 0,1 -1,1 -2,1 -1,0 -2,-1 -3,-1 0,-1 -1,-2 -1,-3 0,0 0,-1 1,-1 0,-1 1,-2 2,-2 2,-1 4,-2 7,-2l0 -1c0,-1 -1,-2 -1,-3 -1,0 -1,0 -2,0 -1,0 -2,0 -2,0 -1,0 -1,1 -1,1l0 1c0,1 0,1 0,1 -1,0 -1,0 -2,0 0,0 0,0 -1,0 0,0 0,0 0,-1 0,-1 0,-2 1,-2 2,-1 3,-1 5,-1 2,0 3,0 4,0 1,1 1,1 1,2 1,0 1,1 1,2l0 5c0,1 0,2 0,2 0,0 0,1 0,1 0,0 1,0 1,0 0,0 0,0 0,0 1,0 1,-1 2,-1l0 0c-2,2 -3,3 -4,3 -1,0 -1,0 -2,-1 0,0 0,-1 0,-1zm0 -1l0 -5c-2,0 -3,0 -4,1 -1,0 -2,1 -2,1 -1,1 -1,1 -1,2 0,0 1,1 1,1 1,1 1,1 2,1 1,0 2,0 4,-1z"/>
  <path id="2" class="fil7" d="M52 154l0 4 4 0 0 1 -4 0 0 9c0,1 0,1 1,2 0,0 0,0 1,0 0,0 1,0 1,0 0,-1 1,-1 1,-1l1 0c-1,1 -1,1 -2,2 -1,0 -2,1 -3,1 0,0 -1,0 -1,-1 -1,0 -1,0 -2,-1 0,0 0,-1 0,-2l0 -9 -3 0 0 0c1,-1 2,-1 2,-1 1,-1 2,-2 2,-2 1,-1 1,-1 2,-2l0 0z"/>
  <path id="3" class="fil7" d="M67 170c-1,1 -2,1 -3,1 -1,1 -1,1 -2,1 -1,0 -2,-1 -3,-1 -1,-1 -1,-2 -1,-3 0,0 0,-1 0,-1 1,-1 2,-2 3,-2 1,-1 4,-2 6,-2l0 -1c0,-1 0,-2 0,-3 -1,0 -2,0 -3,0 -1,0 -1,0 -2,0 0,0 0,1 0,1l0 1c0,1 0,1 -1,1 0,0 0,0 -1,0 0,0 -1,0 -1,0 0,0 0,0 0,-1 0,-1 0,-2 1,-2 1,-1 3,-1 5,-1 1,0 3,0 4,0 0,1 1,1 1,2 0,0 1,1 1,2l0 5c0,1 0,2 0,2 0,0 0,1 0,1 0,0 0,0 0,0 1,0 1,0 1,0 0,0 1,-1 2,-1l0 0c-2,2 -3,3 -4,3 -1,0 -2,0 -2,-1 0,0 -1,-1 -1,-1zm0 -1l0 -5c-1,0 -3,0 -3,1 -1,0 -2,1 -2,1 -1,1 -1,1 -1,2 0,0 0,1 1,1 0,1 1,1 2,1 1,0 2,0 3,-1z"/>
  <path id="4" class="fil7" d="M80 160c1,-1 3,-2 5,-2 2,0 3,0 5,1 1,2 2,3 2,5 0,3 -2,5 -4,6 -1,1 -3,2 -5,2 -1,0 -2,0 -3,-1 -1,0 -3,0 -4,-1l0 -14c0,-1 0,-2 0,-2 0,-1 0,-1 0,-1 0,0 -1,0 -1,0 0,0 -1,0 -1,0l-1 -1 6 -1 1 0 0 9zm0 1l0 8c0,1 1,1 2,1 0,1 1,1 2,1 1,0 2,-1 3,-2 1,-1 1,-2 1,-4 0,-2 0,-3 -1,-4 -1,-1 -2,-1 -4,-1 0,0 -1,0 -2,0 0,0 -1,1 -1,1z"/>
  <path id="5" class="fil7" d="M104 170c-2,1 -3,1 -4,1 0,1 -1,1 -2,1 -1,0 -2,-1 -3,-1 0,-1 -1,-2 -1,-3 0,0 0,-1 1,-1 0,-1 1,-2 2,-2 2,-1 4,-2 7,-2l0 -1c0,-1 0,-2 -1,-3 -1,0 -1,0 -2,0 -1,0 -2,0 -2,0 -1,0 -1,1 -1,1l0 1c0,1 0,1 0,1 -1,0 -1,0 -2,0 0,0 0,0 -1,0 0,0 0,0 0,-1 0,-1 0,-2 1,-2 2,-1 3,-1 5,-1 2,0 3,0 4,0 1,1 1,1 2,2 0,0 0,1 0,2l0 5c0,1 0,2 0,2 0,0 0,1 0,1 0,0 1,0 1,0 0,0 0,0 0,0 1,0 1,-1 2,-1l0 0c-2,2 -3,3 -4,3 -1,0 -1,0 -2,-1 0,0 0,-1 0,-1zm0 -1l0 -5c-2,0 -3,0 -4,1 -1,0 -2,1 -2,1 0,1 -1,1 -1,2 0,0 1,1 1,1 1,1 1,1 2,1 1,0 2,0 4,-1z"/>
  <path id="6" class="fil7" d="M122 158l0 4 0 0c-1,-1 -1,-2 -2,-3 -1,0 -2,0 -3,0 -1,0 -2,0 -2,0 -1,0 -1,1 -1,1 0,1 0,1 1,2 0,0 1,1 2,1l3 1c2,1 4,2 4,4 0,1 -1,2 -2,3 -1,0 -3,1 -4,1 -1,0 -2,0 -4,-1 0,0 -1,0 -1,0 0,0 0,0 -1,1l0 0 0 -5 0 0c1,1 2,2 3,3 0,1 2,1 3,1 1,0 1,0 2,-1 0,0 1,0 1,-1 0,-1 -1,-1 -1,-2 -1,0 -2,-1 -4,-1 -2,-1 -3,-2 -3,-2 -1,-1 -1,-2 -1,-2 0,-2 0,-2 1,-3 1,-1 2,-1 4,-1 1,0 2,0 2,0 1,0 2,0 2,0 0,0 0,0 0,0 0,0 0,0 1,0l0 0z"/>
  <path id="7" class="fil7" d="M129 163c0,2 1,4 2,5 1,1 3,1 4,1 1,0 2,0 3,0 1,-1 2,-2 2,-3l1 1c0,1 -1,2 -2,3 -2,1 -3,2 -5,2 -2,0 -4,-1 -5,-2 -2,-1 -3,-3 -3,-5 0,-2 1,-4 3,-5 1,-2 3,-2 5,-2 2,0 4,0 5,1 1,1 2,3 2,4l-12 0zm0 -1l8 0c0,-1 0,-1 0,-1 -1,-1 -1,-1 -2,-2 0,0 -1,0 -2,0 -1,0 -2,0 -3,1 0,0 -1,1 -1,2z"/>
  <path id="8" class="fil7" d="M155 152l0 0 11 0 0 0 -1 0c-1,0 -1,1 -2,1 0,0 0,1 0,2l0 10c0,1 -1,3 -1,3 0,1 -1,2 -2,3 -1,1 -2,1 -4,1 -1,0 -2,0 -3,-1 0,0 -1,-1 -1,-1 0,-1 1,-1 1,-1 0,-1 1,-1 1,-1 1,0 1,0 1,0 1,1 1,1 2,2 0,1 0,1 1,1 0,0 0,0 1,-1 0,0 0,-1 0,-1l0 -14c0,-1 0,-1 0,-2 0,0 -1,0 -1,0 -1,-1 -1,-1 -2,-1l-1 0z"/>
  <path id="9" class="fil7" d="M183 158l0 8c0,2 0,3 0,3 0,0 0,1 0,1 1,0 1,0 1,0 1,0 1,0 1,0l1 0 -5 2 -1 0 0 -3c-2,1 -3,2 -4,2 0,1 -1,1 -2,1 -1,0 -2,0 -3,-1 0,0 -1,-1 -1,-1 0,-1 0,-2 0,-3l0 -6c0,-1 -1,-1 -1,-2 0,0 0,0 -1,0 0,0 -1,0 -1,0l0 -1 6 0 0 9c0,1 0,2 0,2 1,1 2,1 2,1 1,0 2,0 2,0 1,-1 2,-1 3,-2l0 -7c0,-1 0,-2 -1,-2 0,0 -1,0 -2,0l0 -1 6 0z"/>
  <path id="10" class="fil7" d="M192 158l0 3c1,-2 3,-3 4,-3 1,0 2,0 2,0 1,1 1,1 1,1 0,1 0,1 -1,1 0,1 0,1 -1,1 0,0 -1,0 -1,-1 -1,0 -1,0 -1,0 -1,0 -1,0 -1,0 -1,0 -1,1 -2,2l0 6c0,1 0,2 0,2 1,0 1,0 1,1 1,0 1,0 2,0l0 0 -9 0 0 0c1,0 2,0 2,0 1,-1 1,-1 1,-1 0,0 0,-1 0,-2l0 -5c0,-1 0,-2 0,-2 0,-1 0,-1 -1,-1 0,0 0,0 0,0 -1,0 -1,0 -2,0l0 -1 5 -1 1 0z"/>
  <path id="11" class="fil7" d="M205 161c2,-2 4,-3 6,-3 1,0 1,0 2,0 1,1 1,1 2,2 0,1 0,2 0,3l0 5c0,1 0,2 0,2 0,0 1,1 1,1 0,0 1,0 2,0l0 0 -9 0 0 0 0 0c1,0 2,0 2,0 0,-1 1,-1 1,-1 0,0 0,-1 0,-2l0 -5c0,-1 0,-2 -1,-3 0,0 -1,-1 -2,-1 -1,0 -3,1 -4,2l0 7c0,1 0,2 0,2 0,0 0,1 1,1 0,0 1,0 2,0l0 0 -9 0 0 0 0 0c1,0 2,0 2,-1 1,0 1,-1 1,-2l0 -4c0,-2 0,-3 0,-3 -1,-1 -1,-1 -1,-1 0,0 0,0 -1,0 0,0 0,0 -1,0l0 -1 5 -1 1 0 0 3z"/>
  <path id="12" class="fil7" d="M229 170c-2,1 -3,1 -4,1 0,1 -1,1 -2,1 -1,0 -2,-1 -3,-1 0,-1 -1,-2 -1,-3 0,0 0,-1 1,-1 0,-1 1,-2 2,-2 2,-1 4,-2 7,-2l0 -1c0,-1 -1,-2 -1,-3 -1,0 -1,0 -2,0 -1,0 -2,0 -2,0 -1,0 -1,1 -1,1l0 1c0,1 0,1 0,1 -1,0 -1,0 -2,0 0,0 0,0 -1,0 0,0 0,0 0,-1 0,-1 0,-2 1,-2 2,-1 3,-1 5,-1 2,0 3,0 4,0 1,1 1,1 2,2 0,0 0,1 0,2l0 5c0,1 0,2 0,2 0,0 0,1 0,1 0,0 1,0 1,0 0,0 0,0 0,0 1,0 1,-1 2,-1l0 0c-2,2 -3,3 -4,3 -1,0 -1,0 -2,-1 0,0 0,-1 0,-1zm0 -1l0 -5c-2,0 -3,0 -4,1 -1,0 -2,1 -2,1 0,1 -1,1 -1,2 0,0 1,1 1,1 1,1 1,1 2,1 1,0 2,0 4,-1z"/>
  <path id="13" class="fil7" d="M242 151l0 17c0,1 0,2 0,2 0,0 1,1 1,1 0,0 1,0 2,0l0 0 -9 0 0 0c1,0 2,0 2,0 0,0 1,-1 1,-1 0,0 0,-1 0,-2l0 -12c0,-1 0,-2 0,-2 0,-1 0,-1 -1,-1 0,0 0,0 0,0 -1,0 -1,0 -2,0l0 -1 5 -1 1 0z"/>
  <path id="14" class="fil7" d="M267 171l0 0 -11 0 0 0 1 0c1,0 2,0 2,-1 1,0 1,-1 1,-2l0 -13c0,-1 0,-1 0,-2 -1,0 -1,0 -1,0 -1,-1 -1,-1 -2,-1l-1 0 0 0 11 0 0 0 -1 0c-1,0 -2,1 -2,1 0,0 -1,1 -1,2l0 13c0,1 1,2 1,2 0,0 0,0 0,1 1,0 2,0 2,0l1 0z"/>
  <path id="15" class="fil7" d="M275 151l0 17c0,1 0,2 0,2 1,0 1,1 1,1 0,0 1,0 2,0l0 0 -8 0 0 0c0,0 1,0 1,0 0,0 1,-1 1,-1 0,0 0,-1 0,-2l0 -12c0,-1 0,-2 0,-2 0,-1 0,-1 0,-1 -1,0 -1,0 -1,0 -1,0 -1,0 -1,0l-1 -1 5 -1 1 0z"/>
  <path id="16" class="fil7" d="M285 161c1,-1 2,-2 2,-2 1,0 1,-1 2,-1 1,0 1,0 2,0 1,0 2,0 3,0 1,1 1,2 1,3 2,-2 3,-2 4,-3 0,0 1,0 2,0 1,0 2,0 3,0 0,1 1,1 1,2 1,1 1,2 1,3l0 5c0,1 0,2 0,2 0,0 0,1 1,1 0,0 1,0 1,0l0 0 -8 0 0 0 0 0c1,0 2,0 2,0 0,-1 1,-1 1,-1 0,0 0,-1 0,-2l0 -5c0,-1 0,-2 -1,-3 0,0 -1,-1 -2,-1 -1,0 -1,1 -2,1 -1,0 -2,1 -3,1l0 0 0 1 0 6c0,1 1,2 1,2 0,0 0,1 0,1 1,0 1,0 2,0l0 0 -8 0 0 0c1,0 1,0 2,0 0,-1 0,-1 0,-1 0,0 0,-1 0,-2l0 -5c0,-1 0,-2 0,-3 -1,0 -2,-1 -3,-1 0,0 -1,1 -2,1 -1,0 -1,1 -2,1l0 7c0,1 0,2 0,2 0,0 1,1 1,1 0,0 1,0 2,0l0 0 -9 0 0 0c1,0 2,0 2,0 0,0 1,-1 1,-1 0,0 0,-1 0,-2l0 -5c0,-1 0,-2 0,-2 0,-1 0,-1 -1,-1 0,0 0,0 0,0 -1,0 -1,0 -2,0l0 -1 5 -1 1 0 0 3z"/>
  <path id="17" class="fil7" d="M314 151c1,0 1,0 2,0 0,1 0,1 0,1 0,1 0,1 0,1 -1,1 -1,1 -2,1 0,0 -1,0 -1,-1 0,0 -1,0 -1,-1 0,0 1,0 1,-1 0,0 1,0 1,0zm2 7l0 10c0,1 0,2 0,2 0,0 0,1 1,1 0,0 1,0 1,0l0 0 -8 0 0 0c1,0 1,0 2,0 0,0 0,-1 0,-1 1,0 1,-1 1,-2l0 -5c0,-1 0,-2 0,-2 -1,-1 -1,-1 -1,-1 0,0 0,0 -1,0 0,0 0,0 -1,0l0 -1 5 -1 1 0z"/>
  <path id="18" class="fil7" d="M330 170c-2,1 -3,1 -3,1 -1,1 -1,1 -2,1 -1,0 -2,-1 -3,-1 -1,-1 -1,-2 -1,-3 0,0 0,-1 0,-1 1,-1 2,-2 3,-2 1,-1 3,-2 6,-2l0 -1c0,-1 0,-2 -1,-3 0,0 -1,0 -2,0 -1,0 -1,0 -2,0 0,0 -1,1 -1,1l1 1c0,1 -1,1 -1,1 0,0 -1,0 -1,0 -1,0 -1,0 -1,0 -1,0 -1,0 -1,-1 0,-1 1,-2 2,-2 1,-1 3,-1 5,-1 1,0 2,0 3,0 1,1 2,1 2,2 0,0 0,1 0,2l0 5c0,1 0,2 0,2 1,0 1,1 1,1 0,0 0,0 0,0 0,0 1,0 1,0 0,0 1,-1 1,-1l0 0c-1,2 -2,3 -4,3 0,0 -1,0 -1,-1 -1,0 -1,-1 -1,-1zm0 -1l0 -5c-2,0 -3,0 -3,1 -1,0 -2,1 -3,1 0,1 0,1 0,2 0,0 0,1 1,1 0,1 1,1 1,1 1,0 3,0 4,-1z"/>
  <path id="19" class="fil7" d="M343 151l0 10c1,-2 2,-2 3,-3 1,0 2,0 2,0 1,0 2,0 3,0 1,1 1,1 1,2 1,1 1,2 1,4l0 4c0,1 0,2 0,2 0,0 0,1 1,1 0,0 1,0 1,0l0 0 -8 0 0 0 0 0c1,0 2,0 2,0 0,-1 1,-1 1,-1 0,0 0,-1 0,-2l0 -4c0,-2 0,-3 -1,-3 0,-1 0,-1 0,-1 -1,0 -1,-1 -2,-1 -1,0 -1,1 -2,1 -1,0 -1,1 -2,1l0 7c0,1 0,2 0,2 0,0 0,1 1,1 0,0 1,0 1,0l0 0 -8 0 0 0c1,0 1,0 2,0 0,0 0,-1 0,-1 0,0 1,-1 1,-2l0 -12c0,-1 0,-2 -1,-2 0,-1 0,-1 0,-1 0,0 0,0 -1,0 0,0 0,0 -1,0l0 -1 5 -1 1 0z"/>
  <path id="20" class="fil7" d="M377 171l0 0 -11 0 0 0 1 0c1,0 2,0 2,-1 1,0 1,-1 1,-2l0 -13c0,-1 0,-1 0,-2 -1,0 -1,0 -1,0 -1,-1 -1,-1 -2,-1l-1 0 0 0 11 0 0 0 -1 0c-1,0 -2,1 -2,1 0,0 -1,1 -1,2l0 13c0,1 1,2 1,2 0,0 0,0 1,1 0,0 1,0 1,0l1 0z"/>
  <path id="21" class="fil7" d="M384 161c2,-2 4,-3 6,-3 1,0 2,0 2,0 1,1 2,1 2,2 0,1 0,2 0,3l0 5c0,1 1,2 1,2 0,0 0,1 0,1 1,0 1,0 2,0l0 0 -8 0 0 0 0 0c1,0 1,0 2,0 0,-1 0,-1 0,-1 0,0 0,-1 0,-2l0 -5c0,-1 0,-2 0,-3 -1,0 -1,-1 -2,-1 -2,0 -3,1 -5,2l0 7c0,1 0,2 0,2 1,0 1,1 1,1 1,0 1,0 2,0l0 0 -8 0 0 0 0 0c1,0 1,0 2,-1 0,0 0,-1 0,-2l0 -4c0,-2 0,-3 0,-3 0,-1 0,-1 0,-1 -1,0 -1,0 -1,0 -1,0 -1,0 -1,0l-1 -1 5 -1 1 0 0 3z"/>
  <path id="22" class="fil7" d="M411 170c-1,1 -2,1 -3,1 -1,1 -1,1 -2,1 -2,0 -4,-1 -5,-2 -2,-1 -2,-3 -2,-5 0,-2 0,-3 2,-5 1,-1 3,-2 6,-2 1,0 3,0 4,1l0 -3c0,-1 0,-2 -1,-2 0,-1 0,-1 0,-1 0,0 0,0 -1,0 0,0 0,0 -1,0l0 -1 5 -1 1 0 0 15c0,2 0,3 0,3 0,0 0,1 0,1 1,0 1,0 1,0 0,0 1,0 1,0l1 0 -6 2 0 0 0 -2zm0 -1l0 -7c0,-1 -1,-1 -1,-2 0,0 -1,-1 -2,-1 0,0 -1,0 -1,0 -1,0 -2,0 -3,1 -1,1 -2,2 -2,4 0,2 1,4 2,5 1,1 2,1 3,1 1,0 3,0 4,-1z"/>
  <path id="23" class="fil7" d="M426 158c3,0 5,1 6,2 2,1 2,3 2,5 0,1 0,2 -1,3 0,1 -1,2 -3,3 -1,1 -2,1 -4,1 -3,0 -5,-1 -6,-3 -1,-1 -2,-2 -2,-4 0,-1 0,-3 1,-4 1,-1 2,-2 3,-2 1,-1 3,-1 4,-1zm0 1c-1,0 -2,0 -2,0 -1,0 -2,1 -2,2 0,1 -1,1 -1,3 0,2 1,3 2,5 1,1 2,2 4,2 1,0 2,-1 3,-1 1,-1 1,-2 1,-4 0,-3 -1,-5 -2,-6 -1,-1 -2,-1 -3,-1z"/>
  <path id="24" class="fil7" d="M442 161c2,-2 4,-3 6,-3 1,0 1,0 2,0 1,1 1,1 2,2 0,1 0,2 0,3l0 5c0,1 0,2 0,2 1,0 1,1 1,1 0,0 1,0 2,0l0 0 -9 0 0 0 1 0c0,0 1,0 1,0 1,-1 1,-1 1,-1 0,0 0,-1 0,-2l0 -5c0,-1 0,-2 -1,-3 0,0 -1,-1 -2,-1 -1,0 -3,1 -4,2l0 7c0,1 0,2 0,2 0,0 1,1 1,1 0,0 1,0 2,0l0 0 -9 0 0 0 1 0c1,0 1,0 1,-1 1,0 1,-1 1,-2l0 -4c0,-2 0,-3 0,-3 0,-1 -1,-1 -1,-1 0,0 0,0 0,0 -1,0 -1,0 -2,0l0 -1 5 -1 1 0 0 3z"/>
  <path id="25" class="fil7" d="M459 163c0,2 1,4 2,5 1,1 3,1 4,1 1,0 2,0 3,0 1,-1 2,-2 2,-3l1 1c0,1 -1,2 -2,3 -2,1 -3,2 -5,2 -2,0 -4,-1 -5,-2 -2,-1 -3,-3 -3,-5 0,-2 1,-4 3,-5 1,-2 3,-2 5,-2 2,0 4,0 5,1 1,1 2,3 2,4l-12 0zm0 -1l8 0c0,-1 0,-1 0,-1 -1,-1 -1,-1 -2,-2 0,0 -1,0 -2,0 -1,0 -2,0 -2,1 -1,0 -2,1 -2,2z"/>
  <path id="26" class="fil7" d="M484 158l0 4 0 0c-1,-1 -1,-2 -2,-3 -1,0 -2,0 -3,0 -1,0 -1,0 -2,0 -1,0 -1,1 -1,1 0,1 0,1 1,2 0,0 1,1 2,1l3 1c2,1 4,2 4,4 0,1 -1,2 -2,3 -1,0 -3,1 -4,1 -1,0 -2,0 -4,-1 0,0 0,0 -1,0 0,0 0,0 0,1l-1 0 0 -5 1 0c0,1 1,2 2,3 1,1 2,1 3,1 1,0 2,0 2,-1 1,0 1,0 1,-1 0,-1 0,-1 -1,-2 -1,0 -2,-1 -4,-1 -1,-1 -3,-2 -3,-2 -1,-1 -1,-2 -1,-2 0,-2 0,-2 1,-3 1,-1 3,-1 4,-1 1,0 2,0 3,0 0,0 1,0 1,0 0,0 0,0 0,0 0,0 1,0 1,0l0 0z"/>
  <path id="27" class="fil7" d="M493 151c0,0 1,0 1,0 0,1 1,1 1,1 0,1 -1,1 -1,1 0,1 -1,1 -1,1 -1,0 -1,0 -2,-1 0,0 0,0 0,-1 0,0 0,0 0,-1 1,0 1,0 2,0zm1 7l0 10c0,1 0,2 0,2 1,0 1,1 1,1 0,0 1,0 2,0l0 0 -9 0 0 0c1,0 2,0 2,0 0,0 1,-1 1,-1 0,0 0,-1 0,-2l0 -5c0,-1 0,-2 0,-2 0,-1 0,-1 -1,-1 0,0 0,0 0,0 -1,0 -1,0 -2,0l0 -1 5 -1 1 0z"/>
  <path id="28" class="fil7" d="M509 170c-2,1 -3,1 -4,1 0,1 -1,1 -2,1 -1,0 -2,-1 -3,-1 -1,-1 -1,-2 -1,-3 0,0 0,-1 1,-1 0,-1 1,-2 2,-2 2,-1 4,-2 7,-2l0 -1c0,-1 -1,-2 -1,-3 -1,0 -2,0 -3,0 0,0 -1,0 -1,0 -1,0 -1,1 -1,1l0 1c0,1 0,1 -1,1 0,0 0,0 -1,0 0,0 -1,0 -1,0 0,0 0,0 0,-1 0,-1 0,-2 1,-2 1,-1 3,-1 5,-1 2,0 3,0 4,0 1,1 1,1 1,2 1,0 1,1 1,2l0 5c0,1 0,2 0,2 0,0 0,1 0,1 0,0 0,0 1,0 0,0 0,0 0,0 0,0 1,-1 2,-1l0 0c-2,2 -3,3 -4,3 -1,0 -1,0 -2,-1 0,0 0,-1 0,-1zm0 -1l0 -5c-2,0 -3,0 -4,1 -1,0 -2,1 -2,1 -1,1 -1,1 -1,2 0,0 0,1 1,1 1,1 1,1 2,1 1,0 2,0 4,-1z"/>
  <line class="fil8 str0" x1="3" y1="101" x2="515" y2= "101" />
  <line class="fil8 str0" x1="3" y1="145" x2="515" y2= "145" />
  <line class="fil8 str0" x1="3" y1="182" x2="515" y2= "182" />
 </g>
</svg>
