<?xml version="1.0" encoding="UTF-8"?>
<!DOCTYPE svg PUBLIC "-//W3C//DTD SVG 1.1//EN" "http://www.w3.org/Graphics/SVG/1.1/DTD/svg11.dtd">
<!-- Creator: CorelDRAW X7 -->
<svg xmlns="http://www.w3.org/2000/svg" xml:space="preserve" width="0.585484in" height="0.277717in" version="1.1" style="shape-rendering:geometricPrecision; text-rendering:geometricPrecision; image-rendering:optimizeQuality; fill-rule:evenodd; clip-rule:evenodd"
viewBox="0 0 58 28"
 xmlns:xlink="http://www.w3.org/1999/xlink">
 <defs>
  <style type="text/css">
   <![CDATA[
    .fil0 {fill:#E73B43}
   ]]>
  </style>
 </defs>
 <g id="Layer_x0020_1">
  <metadata id="CorelCorpID_0Corel-Layer"/>
  <g id="_198070320">
   <path class="fil0" d="M44 28l-3 0 -1 -4 -6 0 -1 4 -4 0 6 -17 3 0 6 17zm-5 -7l-2 -6 -2 6 4 0zm7 -10l5 0c2,0 2,0 3,0 1,0 2,1 2,1 1,1 1,2 2,3 0,1 0,3 0,4 0,2 0,3 0,4 -1,1 -1,2 -2,3 0,0 -1,1 -2,1 -1,0 -1,1 -3,1l-5 0 0 -17zm3 2l0 12 2 0c1,0 1,0 2,-1 0,0 1,0 1,0 0,-1 1,-1 1,-2 0,-1 0,-2 0,-3 0,-1 0,-2 0,-3 0,-1 -1,-1 -1,-2 0,0 -1,0 -1,0 -1,-1 -2,-1 -3,-1l-1 0z"/>
   <path class="fil0" d="M21 16c1,0 3,1 3,3 0,1 -2,2 -3,2 -1,0 -2,-1 -2,-2 0,-2 1,-3 2,-3z"/>
   <path class="fil0" d="M5 21c1,3 2,7 7,6 0,0 0,-1 0,-2 -2,0 -3,-2 -4,-4 1,-1 1,-1 1,-1 1,0 1,-1 1,-2 1,0 1,-1 1,-2 0,-2 -1,-3 -1,-4 -1,0 -1,-1 -2,-1 -1,0 -2,-1 -3,-1l-5 0 0 17 3 0 0 -6 2 0 0 0zm-2 -8l0 5 1 0c2,0 2,0 3,0 0,0 0,-1 1,-1 0,0 0,-1 0,-1 0,-1 0,-1 -1,-2 0,0 0,0 -1,-1 0,0 -1,0 -2,0l-1 0z"/>
   <path class="fil0" d="M21 0c-4,0 -7,3 -7,8l3 0c0,-1 0,-5 4,-5 4,0 5,4 4,9 -1,-1 -2,-2 -4,-2 -2,0 -4,1 -6,3 -2,1 -3,4 -3,6 0,2 1,5 3,6 2,2 4,3 6,3 2,0 5,-1 6,-3 2,-1 3,-4 3,-6 0,-2 -1,-3 -1,-4l-1 -8c0,-4 -3,-7 -7,-7zm4 15c-1,-1 -2,-2 -4,-2 -2,0 -3,1 -4,2 -1,1 -2,2 -2,4 0,2 1,3 2,4 1,1 2,2 4,2 2,0 3,-1 4,-2 1,-1 2,-2 2,-4 0,-2 -1,-3 -2,-4z"/>
  </g>
 </g>
</svg>
